<svg xmlns="http://www.w3.org/2000/svg" viewBox="0 0 512 512" width="512" height="512">
  <defs>
    <linearGradient id="bg" x1="0" y1="0" x2="1" y2="1">
      <stop offset="0%" stop-color="#1a1a2e"/>
      <stop offset="100%" stop-color="#16213e"/>
    </linearGradient>
  </defs>
  <!-- Background circle -->
  <circle cx="256" cy="256" r="256" fill="url(#bg)"/>
  <!-- Octopus head -->
  <ellipse cx="256" cy="200" rx="110" ry="100" fill="#e94560"/>
  <!-- Eyes -->
  <circle cx="220" cy="185" r="22" fill="#fff"/>
  <circle cx="292" cy="185" r="22" fill="#fff"/>
  <circle cx="224" cy="182" r="10" fill="#1a1a2e"/>
  <circle cx="296" cy="182" r="10" fill="#1a1a2e"/>
  <!-- Eye highlights -->
  <circle cx="228" cy="178" r="4" fill="#fff"/>
  <circle cx="300" cy="178" r="4" fill="#fff"/>
  <!-- Smile -->
  <path d="M230 215 Q256 240 282 215" stroke="#1a1a2e" stroke-width="4" fill="none" stroke-linecap="round"/>
  <!-- Headphones band -->
  <path d="M148 195 Q148 110 256 110 Q364 110 364 195" stroke="#a0a0b8" stroke-width="10" fill="none" stroke-linecap="round"/>
  <!-- Left earpiece -->
  <rect x="134" y="178" width="28" height="40" rx="8" fill="#a0a0b8"/>
  <!-- Right earpiece -->
  <rect x="350" y="178" width="28" height="40" rx="8" fill="#a0a0b8"/>
  <!-- Tentacles -->
  <path d="M180 280 Q150 340 120 380 Q110 400 130 395" stroke="#e94560" stroke-width="16" fill="none" stroke-linecap="round"/>
  <path d="M210 290 Q190 360 170 410 Q160 430 180 420" stroke="#e94560" stroke-width="16" fill="none" stroke-linecap="round"/>
  <path d="M250 295 Q248 370 240 420 Q235 440 255 430" stroke="#e94560" stroke-width="16" fill="none" stroke-linecap="round"/>
  <path d="M290 295 Q292 370 300 420 Q305 440 285 430" stroke="#e94560" stroke-width="16" fill="none" stroke-linecap="round"/>
  <path d="M330 280 Q360 340 390 380 Q400 400 380 395" stroke="#e94560" stroke-width="16" fill="none" stroke-linecap="round"/>
  <!-- Small suction cups on some tentacles -->
  <circle cx="135" cy="370" r="5" fill="#ff6b81"/>
  <circle cx="175" cy="400" r="5" fill="#ff6b81"/>
  <circle cx="248" cy="405" r="5" fill="#ff6b81"/>
  <circle cx="295" cy="405" r="5" fill="#ff6b81"/>
  <circle cx="375" cy="370" r="5" fill="#ff6b81"/>
</svg>
